# xmcd
#
# Track frame offsets: 
#        150
#        19780
#        41392
#        60532
#        80172
#        97137
#        117075
#        136355
#        153522
#        166000
#        181850
#        199580
#        221560
#
# Disc length: 3227 seconds
#
# Revision: 4
# Processed by: cddbd v1.5.2PL0 Copyright (c) Steve Scherf et al.
# Submitted via: ExactAudioCopy v0.99pb5
#
DISCID=a90c990d
DTITLE=Машина времени - Unplugged
DYEAR=1994
DGENRE=Acoustic
TTITLE0=Дорога в небо
TTITLE1=Внештатный командир Земли
TTITLE2=На семи ветрах
TTITLE3=Дальше и дальше
TTITLE4=Знаю только я
TTITLE5=Мой друг (лучше всех играет блюз)
TTITLE6=Этот вечный блюз
TTITLE7=Когда я был большим
TTITLE8=Колыбельная
TTITLE9=Старый корабль
TTITLE10=Кафе Лира
TTITLE11=Родной дом
TTITLE12=Три окна
EXTD=
EXTT0=
EXTT1=
EXTT2=
EXTT3=
EXTT4=
EXTT5=
EXTT6=
EXTT7=
EXTT8=
EXTT9=
EXTT10=
EXTT11=
EXTT12=
PLAYORDER=
